<?xml version="1.0" encoding="UTF-8" standalone="no"?><!DOCTYPE svg PUBLIC "-//W3C//DTD SVG 1.1//EN" "http://www.w3.org/Graphics/SVG/1.1/DTD/svg11.dtd"><svg width="100%" height="100%" viewBox="0 0 2134 2134" version="1.1" xmlns="http://www.w3.org/2000/svg" xmlns:xlink="http://www.w3.org/1999/xlink" xml:space="preserve" xmlns:serif="http://www.serif.com/" style="fill-rule:evenodd;clip-rule:evenodd;stroke-linejoin:round;stroke-miterlimit:2;"><g><g><path d="M1786.89,1563.04c-15.675,-0 -30.263,-8.009 -38.675,-21.238l-300.609,-472.683c-8.975,-14.113 -9.55,-31.996 -1.495,-46.654c8.049,-14.663 23.445,-23.775 40.174,-23.775l117.992,-0l0,-382.563c0,-25.312 20.521,-45.833 45.833,-45.833l273.563,-0c25.313,-0 45.833,20.521 45.833,45.833l0,382.563l117.992,-0c16.729,-0 32.125,9.112 40.175,23.77c8.054,14.663 7.479,32.546 -1.496,46.659l-300.608,472.683c-8.417,13.229 -23.004,21.238 -38.679,21.238Zm-217.146,-472.68l217.146,341.442l217.141,-341.442l-80.362,0c-25.313,0 -45.834,-20.521 -45.834,-45.833l0,-382.563l-181.895,0l-0,382.563c-0,25.312 -20.521,45.833 -45.834,45.833l-80.362,0Z" style="fill:#fff;fill-rule:nonzero;"/></g><g><path d="M679.142,76.563l-0.738,-0.001c-374.071,0.001 -678.404,304.334 -678.404,678.405l0,623.396c0,374.075 304.333,678.408 678.404,678.408l0.738,-0c374.071,-0 678.404,-304.333 678.404,-678.408l-0,-623.396c0.004,-374.071 -304.333,-678.404 -678.404,-678.404Zm586.741,1301.8c0,323.529 -263.212,586.741 -586.737,586.741l-0.738,0c-323.529,0 -586.741,-263.212 -586.741,-586.741l-0,-623.4c-0,-323.529 263.212,-586.742 586.737,-586.742l0.738,-0c323.525,-0 586.737,263.213 586.737,586.742l0,623.4l0.004,-0Z" style="fill:#fff;fill-rule:nonzero;"/><path d="M678.775,843.554c25.313,0 45.833,-20.521 45.833,-45.833l0,-210.679c0,-25.313 -20.52,-45.834 -45.833,-45.834c-25.312,0 -45.833,20.521 -45.833,45.834l-0,210.679c-0,25.312 20.52,45.833 45.833,45.833Z" style="fill:#fff;fill-rule:nonzero;"/><path d="M285.963,1042.48c-25.313,0 -45.834,20.521 -45.834,45.834c0,25.312 20.521,45.833 45.834,45.833l785.625,0c25.312,0 45.833,-20.521 45.833,-45.833c-0,-25.313 -20.521,-45.834 -45.833,-45.834l-785.625,0Z" style="fill:#fff;fill-rule:nonzero;"/></g></g></svg>